<svg id="Camada_2" data-name="Camada 2" xmlns="http://www.w3.org/2000/svg" xmlns:xlink="http://www.w3.org/1999/xlink" viewBox="0 0 1046 1046"><defs><style>.cls-1{fill:url(#Gradient);}</style><linearGradient id="Gradient" x1="314.97" y1="74" x2="763.71" y2="1001.41" gradientUnits="userSpaceOnUse"><stop offset="0.1" stop-color="#720355"/><stop offset="0.21" stop-color="#7a0c51"/><stop offset="0.4" stop-color="#8e2644"/><stop offset="0.65" stop-color="#b04f31"/><stop offset="0.94" stop-color="#df8816"/><stop offset="1" stop-color="#ea960f"/></linearGradient></defs><path class="cls-1" d="M1062.79,249.55c-1.11-6.75-6.8-12.31-14.43-14.53l0,0L551.33,19.66l0,0a25,25,0,0,0-23.2.31L36.71,232.89c-10.91,3-19.1,13.58-19.68,26.39h0V826.56h0c0,.16,0,.32,0,.48,0,6,4.88,11.15,11.92,13.59l-.06.12,489.57,217.09C523.1,1061,531,1063,540,1063c7.7,0,14.61-1.5,19.37-3.89H560v-.33l.13-.07L1053.36,840l0-.07a16.27,16.27,0,0,0,9.22-11.43h.45V249.55ZM772.13,157.88l-446.4,209C317.08,370,311,377.29,311,385.78c0,.32,0,.65,0,1h0v190l-99.12-44V346.07l478-223.83ZM542.28,58.31l97.6,42.28L202.4,305.45l-114-50.53ZM521,1014.37,56,808.17V285.6l.41-.27L172.88,337V549.24H173c0,.17,0,.33,0,.49,0,6.15,3.84,11.52,9.58,14.51l-.07.14,136,60.28a20.92,20.92,0,0,0,5,2.24l1.3.58.1-.2a27.89,27.89,0,0,0,6.6.78c10.22,0,18.5-5.23,18.5-11.68a7.77,7.77,0,0,0-.08-1H350V415.07L521,490.9Zm20.29-559.76.4.85L383.08,385.12l439-205.59,171.74,74.41ZM1026,808,560,1014.68V490.93l466-206.64Z" transform="translate(-17 -17)"/></svg>